<?xml version="1.0" encoding="UTF-8" standalone="no"?>
<!-- Created with Inkscape (http://www.inkscape.org/) -->

<svg
   xmlns:dc="http://purl.org/dc/elements/1.1/"
   xmlns:cc="http://creativecommons.org/ns#"
   xmlns:rdf="http://www.w3.org/1999/02/22-rdf-syntax-ns#"
   xmlns:svg="http://www.w3.org/2000/svg"
   xmlns="http://www.w3.org/2000/svg"
   xmlns:xlink="http://www.w3.org/1999/xlink"
   xmlns:sodipodi="http://sodipodi.sourceforge.net/DTD/sodipodi-0.dtd"
   xmlns:inkscape="http://www.inkscape.org/namespaces/inkscape"
   id="svg3061"
   version="1.1"
   inkscape:version="0.48.3.1 r9886"
   width="765"
   height="990"
   xml:space="preserve"
   sodipodi:docname="SGVirtual2013-participante.pdf"><metadata
     id="metadata3067"><rdf:RDF><cc:Work
         rdf:about=""><dc:format>image/svg+xml</dc:format><dc:type
           rdf:resource="http://purl.org/dc/dcmitype/StillImage" /><dc:title></dc:title></cc:Work></rdf:RDF></metadata><defs
     id="defs3065"><clipPath
       clipPathUnits="userSpaceOnUse"
       id="clipPath3075"><path
         d="M 0,792 612,792 612,0 0,0 0,792 z"
         id="path3077" /></clipPath><clipPath
       clipPathUnits="userSpaceOnUse"
       id="clipPath3083"><path
         d="m -0.430664,791.97 611.861664,0 0,-791.9397266 -611.861664,0 0,791.9397266 z"
         id="path3085" /></clipPath><linearGradient
       x1="0"
       y1="0"
       x2="1"
       y2="0"
       gradientUnits="userSpaceOnUse"
       gradientTransform="matrix(-3.05e-5,734.35468,734.35468,3.05e-5,305.50049,32.484375)"
       spreadMethod="pad"
       id="linearGradient3091"><stop
         style="stop-opacity:1;stop-color:#ffffff"
         offset="0"
         id="stop3093" /><stop
         style="stop-opacity:1;stop-color:#d1d3d4"
         offset="0.5"
         id="stop3095" /><stop
         style="stop-opacity:1;stop-color:#bcbec0"
         offset="1"
         id="stop3097" /></linearGradient><linearGradient
       x1="0"
       y1="0"
       x2="1"
       y2="0"
       gradientUnits="userSpaceOnUse"
       gradientTransform="matrix(-3.05e-5,-655.54279,-655.54279,3.05e-5,306.42041,792)"
       spreadMethod="pad"
       id="linearGradient3125"><stop
         style="stop-opacity:1;stop-color:#dddfe0"
         offset="0"
         id="stop3127" /><stop
         style="stop-opacity:1;stop-color:#ffffff"
         offset="1"
         id="stop3129" /></linearGradient><clipPath
       clipPathUnits="userSpaceOnUse"
       id="clipPath3155"><path
         d="M 0,792 612,792 612,0 0,0 0,792 z"
         id="path3157" /></clipPath><clipPath
       clipPathUnits="userSpaceOnUse"
       id="clipPath3207"><path
         d="M 0,792 612,792 612,0 0,0 0,792 z"
         id="path3209" /></clipPath><linearGradient
       x1="0"
       y1="0"
       x2="1"
       y2="0"
       gradientUnits="userSpaceOnUse"
       gradientTransform="matrix(78.794922,0,0,-78.794922,155.76318,737.53223)"
       spreadMethod="pad"
       id="linearGradient7001"><stop
         style="stop-opacity:1;stop-color:#8bc53f"
         offset="0"
         id="stop7003" /><stop
         style="stop-opacity:1;stop-color:#37b34a"
         offset="0.67485"
         id="stop7005" /><stop
         style="stop-opacity:1;stop-color:#006838"
         offset="1"
         id="stop7007" /></linearGradient><linearGradient
       x1="0"
       y1="0"
       x2="1"
       y2="0"
       gradientUnits="userSpaceOnUse"
       gradientTransform="matrix(87.751465,0,0,-87.751465,236.09229,737.53467)"
       spreadMethod="pad"
       id="linearGradient7023"><stop
         style="stop-opacity:1;stop-color:#8bc53f"
         offset="0"
         id="stop7025" /><stop
         style="stop-opacity:1;stop-color:#37b34a"
         offset="0.67485"
         id="stop7027" /><stop
         style="stop-opacity:1;stop-color:#006838"
         offset="1"
         id="stop7029" /></linearGradient><clipPath
       clipPathUnits="userSpaceOnUse"
       id="clipPath7037"><path
         d="M 0,792 612,792 612,0 0,0 0,792 z"
         id="path7039" /></clipPath><linearGradient
       x1="0"
       y1="0"
       x2="1"
       y2="0"
       gradientUnits="userSpaceOnUse"
       gradientTransform="matrix(51.252441,0,0,-51.252441,49.493652,113.68164)"
       spreadMethod="pad"
       id="linearGradient7185"><stop
         style="stop-opacity:1;stop-color:#8bc53f"
         offset="0"
         id="stop7187" /><stop
         style="stop-opacity:1;stop-color:#37b34a"
         offset="0.67485"
         id="stop7189" /><stop
         style="stop-opacity:1;stop-color:#006838"
         offset="1"
         id="stop7191" /></linearGradient><linearGradient
       x1="0"
       y1="0"
       x2="1"
       y2="0"
       gradientUnits="userSpaceOnUse"
       gradientTransform="matrix(57.078125,0,0,-57.078125,101.74414,113.68359)"
       spreadMethod="pad"
       id="linearGradient7207"><stop
         style="stop-opacity:1;stop-color:#8bc53f"
         offset="0"
         id="stop7209" /><stop
         style="stop-opacity:1;stop-color:#37b34a"
         offset="0.67485"
         id="stop7211" /><stop
         style="stop-opacity:1;stop-color:#006838"
         offset="1"
         id="stop7213" /></linearGradient><clipPath
       clipPathUnits="userSpaceOnUse"
       id="clipPath7221"><path
         d="M 0,792 612,792 612,0 0,0 0,792 z"
         id="path7223" /></clipPath><linearGradient
       inkscape:collect="always"
       xlink:href="#linearGradient7001"
       id="linearGradient7742"
       gradientUnits="userSpaceOnUse"
       gradientTransform="matrix(78.794922,0,0,-78.794922,155.76318,737.53223)"
       spreadMethod="pad"
       x1="0"
       y1="0"
       x2="1"
       y2="0" /><linearGradient
       inkscape:collect="always"
       xlink:href="#linearGradient7023"
       id="linearGradient7744"
       gradientUnits="userSpaceOnUse"
       gradientTransform="matrix(87.751465,0,0,-87.751465,236.09229,737.53467)"
       spreadMethod="pad"
       x1="0"
       y1="0"
       x2="1"
       y2="0" /></defs><sodipodi:namedview
     pagecolor="#ffffff"
     bordercolor="#666666"
     borderopacity="1"
     objecttolerance="10"
     gridtolerance="10"
     guidetolerance="10"
     inkscape:pageopacity="0"
     inkscape:pageshadow="2"
     inkscape:window-width="1389"
     inkscape:window-height="846"
     id="namedview3063"
     showgrid="false"
     showguides="true"
     inkscape:guide-bbox="true"
     inkscape:zoom="1.18"
     inkscape:cx="396.78969"
     inkscape:cy="645.54992"
     inkscape:window-x="51"
     inkscape:window-y="24"
     inkscape:window-maximized="1"
     inkscape:current-layer="g3069"><sodipodi:guide
       orientation="1,0"
       position="50.344828,182.06897"
       id="guide7746" /><sodipodi:guide
       orientation="1,0"
       position="715.17241,194.48276"
       id="guide7752" /><sodipodi:guide
       orientation="0,1"
       position="371.23288,923.28767"
       id="guide7781" /></sodipodi:namedview><g
     id="g3069"
     inkscape:groupmode="layer"
     inkscape:label="sgvirtual2012"
     transform="matrix(1.25,0,0,-1.25,0,990)"><g
       id="g3071"><g
         id="g3073"
         clip-path="url(#clipPath3075)"><g
           id="g3079"><g
             id="g3081" /><g
             id="g3099"><g
               clip-path="url(#clipPath3083)"
               opacity="0.289993"
               id="g3101"><g
                 id="g3103"><g
                   id="g3105"><g
                     id="g3107"><g
                       id="g3109"><path
                         d="m 611.431,0.03 -611.861,0 0,791.939 611.861,0 0,-791.939 z"
                         style="fill:url(#linearGradient3091);stroke:none"
                         id="path3111" /></g></g></g></g></g></g></g></g></g><g
       id="g3113"><g
         id="g3115"><g
           id="g3121"><g
             id="g3123"><path
               d="M 0.421,0 612,0 l 0,792 -611.579,0 0,-792 z"
               style="fill:url(#linearGradient3125);stroke:none"
               id="path3131" /></g></g><g
           id="g3133"
           transform="translate(-0.1405945,629.4834)"><path
             d="m 0,0 c -10.185,0 -20.374,0 -30.561,-1.137 -3.416,-10.194 -5.668,-19.247 -9.082,-29.434 5.666,3.388 10.213,12.456 10.213,19.24 0,9.07 13.588,2.271 21.516,-4.525 6.781,-7.911 12.451,0 21.496,5.662 4.527,2.278 9.055,3.395 13.593,2.278 0,2.249 -1.136,4.525 -2.269,6.779 C 16.975,0 9.055,0 0,0 m -19.248,-70.204 c -1.113,-6.801 0,-12.465 10.189,-12.465 11.327,1.145 15.855,-3.386 23.786,-9.053 6.776,-4.52 11.304,6.804 6.776,12.464 -4.518,4.527 -3.384,10.189 -5.632,24.91 -2.279,14.717 -10.215,9.056 -13.603,-3.39 -2.254,-11.331 -21.516,-12.466 -21.516,-12.466 m 124.55,23.778 c 9.05,-11.324 16.99,-23.778 24.901,-36.233 11.328,3.395 22.647,7.933 33.977,13.599 -19.256,19.238 -43.023,36.233 -69.078,48.671 2.273,-5.639 5.676,-10.194 10.2,-14.716 4.522,-5.662 4.522,-10.183 0,-11.321 M 30.578,-1.137 c 2.263,-6.793 4.527,-12.46 6.796,-18.112 4.513,-9.065 11.328,-4.518 21.513,-6.801 10.189,-2.264 6.797,-7.919 12.448,-18.111 4.518,-9.06 12.458,-24.915 6.786,-24.915 -6.786,0 -28.299,19.249 -28.299,19.249 0,0 -2.259,-1.117 -3.404,-3.394 1.145,-4.529 3.404,-9.054 3.404,-13.572 6.785,-6.804 19.254,-20.379 29.434,-29.461 15.856,3.415 30.568,6.801 46.425,12.468 -7.937,12.46 -16.987,24.921 -26.036,36.232 -6.801,0 -11.324,4.528 -10.19,9.07 0,1.12 0,2.252 -1.134,3.391 -1.145,1.124 -1.145,1.124 -2.274,2.246 -3.398,2.288 -7.926,5.677 -13.587,10.187 -4.518,3.411 -9.046,10.195 -11.319,14.73 l -1.139,0 c -10.18,3.395 -19.245,4.539 -29.424,6.793 m 36.229,-225.312 c 0,29.44 -3.393,61.145 -7.92,91.711 -2.28,-3.396 -3.403,-7.923 -2.28,-12.465 2.28,-18.101 -6.785,-21.514 -13.577,-28.295 -5.656,-6.797 -22.647,-19.26 -12.452,-31.705 11.309,-13.572 -7.922,-13.572 -12.469,-6.801 -4.527,6.801 -9.035,11.336 -19.242,10.193 -10.191,-1.123 -48.673,-3.392 -43.029,-19.241 2.275,-4.53 2.275,-7.936 3.412,-10.192 14.714,-1.132 28.311,-1.132 41.887,-1.132 4.534,2.265 7.937,2.265 12.445,2.265 l 18.129,0 c 9.046,0 18.111,1.123 27.176,2.261 l 0,1.137 c 1.115,1.131 4.527,2.264 7.92,2.264 m -74.723,-12.448 c -10.191,0 -20.398,0 -30.578,1.121 0,-3.393 1.144,-5.645 1.144,-10.167 1.115,-11.329 19.243,-12.465 21.498,-2.279 1.132,4.523 3.413,7.934 7.936,11.325 m 73.59,-41.896 c 1.123,10.185 1.123,20.389 1.123,29.449 -3.402,1.107 -6.785,1.107 -12.447,3.378 -15.862,3.397 -32.847,11.329 -40.758,3.397 -9.065,-9.046 -13.578,-20.372 -2.268,-20.372 10.179,0 11.319,1.132 10.179,-11.314 -1.134,-11.344 9.06,-19.269 16.985,-19.269 5.672,0 12.468,13.602 27.186,14.731 M -37.362,-432.514 c 2.266,-6.797 5.665,-13.588 7.921,-20.368 2.268,0 5.679,0 7.935,-1.136 -2.256,7.916 -6.804,18.111 -13.59,19.246 -1.133,1.124 -2.266,1.124 -2.266,2.258 m -86.043,360.047 c -4.535,-6.797 -9.055,-14.71 -13.607,-22.65 9.072,-1.137 16.992,-3.386 26.048,-4.52 0,3.383 0,27.17 -10.189,27.17 l -2.252,0 z m -53.231,-11.319 c 18.128,-5.66 31.708,-9.053 35.121,-10.185 3.388,7.916 7.911,14.713 12.443,21.511 -4.532,2.256 -6.786,5.645 -6.786,9.058 0,4.525 -2.269,9.054 -5.657,13.575 -12.468,-10.187 -24.928,-21.496 -35.121,-33.959 m -48.673,-115.486 c 15.854,-4.525 31.71,-10.195 48.673,-13.595 2.277,40.771 13.598,79.263 31.708,114.346 -11.309,3.414 -23.774,5.682 -35.096,10.212 -23.772,-31.703 -40.757,-70.203 -45.285,-110.963 m 114.345,93.973 c -9.046,2.258 -18.105,3.396 -28.292,5.662 -19.247,-35.101 -29.432,-73.597 -32.837,-114.352 24.899,-5.662 50.94,-11.327 76.982,-14.717 -9.057,9.055 -19.244,18.107 -18.1,35.101 1.122,32.824 -19.261,32.824 -9.06,55.468 7.916,15.85 11.307,27.178 11.307,32.838 m 39.641,-155.109 c 0,-29.44 3.387,-58.888 9.052,-88.313 30.56,-2.273 60.019,-2.273 90.58,0 -3.383,3.395 -3.383,6.797 4.523,13.578 14.721,15.847 14.721,18.101 0,21.519 -15.847,4.521 -29.427,39.613 -52.08,39.613 -19.246,0 -40.756,4.537 -52.075,13.603 m -16.984,26.032 c -28.314,3.388 -56.609,9.056 -84.923,14.718 -2.264,-38.488 5.672,-80.384 22.647,-115.47 27.178,-5.686 55.472,-10.198 83.779,-12.468 -6.794,30.574 -9.046,62.271 -10.182,93.981 l -1.137,0 c 0,7.916 -4.529,13.578 -10.184,19.239 m -118.892,-86.039 c 15.854,-4.528 32.84,-9.066 49.827,-12.459 -16.987,33.976 -22.642,77.002 -20.398,114.353 -15.829,4.517 -32.817,9.066 -48.671,13.58 0,-6.78 -1.139,-14.717 -1.139,-22.635 0,-32.84 7.913,-64.535 20.381,-92.839 m 104.176,-89.451 c -21.517,21.513 -39.649,44.14 -52.092,70.206 -14.71,4.527 -31.698,7.916 -48.673,12.437 16.975,-35.094 44.14,-65.658 76.977,-88.305 6.801,5.662 15.847,10.179 23.788,5.662 m 67.927,-41.903 c -13.597,31.713 -24.908,63.412 -31.708,98.512 -27.173,2.263 -54.349,6.795 -81.512,12.463 14.712,-31.718 40.762,-60.027 69.072,-82.655 l 10.194,0 c 2.246,-1.134 6.779,-6.801 10.179,-14.717 6.789,-4.526 13.576,-9.069 20.377,-12.468 1.144,-1.135 2.281,-1.135 3.398,-1.135 m 55.465,-2.249 c 0,3.384 1.144,5.658 1.144,10.18 1.13,11.324 4.526,29.439 13.583,18.126 5.65,14.721 11.322,29.428 14.717,45.285 -7.926,5.661 -13.584,11.328 -13.584,19.258 0,3.395 -1.133,5.643 -3.397,7.892 -30.564,-2.249 -61.146,-2.249 -93.972,0 4.536,-23.762 11.329,-48.668 20.379,-72.435 1.132,2.253 2.267,4.527 3.411,6.786 3.388,5.666 12.444,-1.12 15.834,-9.055 2.268,-6.791 4.542,-16.991 6.796,-26.037 l 14.714,0 20.375,0 z m 33.981,70.193 c -4.528,-15.852 -10.2,-30.569 -15.862,-46.415 9.055,-11.339 5.662,0 16.996,6.797 11.323,7.915 22.637,22.641 9.055,32.821 -3.398,2.269 -6.807,4.543 -10.189,6.797 m 160.771,80.38 c -12.459,-6.795 -24.907,-12.458 -38.475,-16.966 2.25,-3.407 1.116,-7.935 -4.55,-14.732 -11.305,-12.442 -1.125,-21.517 -15.858,-36.229 -14.707,-14.712 -28.295,-18.125 -30.563,-45.29 40.758,27.165 72.461,66.804 89.446,113.217 m 9.055,117.775 c -16.987,-9.088 -33.971,-16.998 -52.072,-22.668 2.245,-37.361 0,-71.32 -12.462,-106.431 5.661,0 10.184,-1.125 12.462,-2.253 13.574,4.523 29.429,11.318 44.161,19.239 7.911,22.657 11.309,46.439 11.309,70.207 0,14.711 -1.12,28.304 -3.398,41.906 m -69.067,-129.088 c 11.324,35.095 14.711,67.927 11.324,104.159 -26.031,-9.052 -54.351,-15.85 -81.505,-20.376 3.383,-2.271 11.318,-9.047 0,-14.712 -5.672,-3.411 -9.065,-4.528 -12.468,-5.667 -1.136,-9.05 -1.136,-19.254 -1.136,-28.309 2.274,0 4.539,-1.14 6.787,-1.14 23.803,-4.522 26.055,-1.119 37.374,-7.915 10.196,-7.936 11.329,-24.902 36.232,-24.902 1.133,0 2.277,0 3.392,-1.138 m -82.64,87.182 c 31.697,3.388 64.541,11.323 93.964,22.635 -3.388,39.637 -18.111,82.666 -38.49,116.62 -14.72,-4.518 -28.298,-9.055 -43.015,-12.446 2.248,-2.266 5.642,-3.403 6.786,-3.403 9.064,0 13.593,-10.191 -1.144,-13.585 -7.921,-2.257 -19.235,-5.654 -27.156,-12.456 4.528,-31.699 7.921,-64.547 9.055,-97.365 m 96.228,153.979 c -12.459,-4.535 -23.758,-9.057 -35.092,-13.575 19.245,-32.84 35.092,-77.002 38.491,-116.633 12.457,5.662 31.706,12.468 50.945,22.64 -7.92,40.767 -27.16,78.144 -54.344,107.568 m -24.892,-19.242 c -4.553,-4.527 3.388,-9.055 7.901,-11.331 4.532,-3.388 10.2,1.137 11.339,6.804 0,4.527 -3.394,10.189 -7.936,10.189 -4.507,1.135 -11.304,-5.662 -11.304,-5.662 m -189.1,60.007 c 2.278,10.185 5.659,20.379 9.082,30.563 -10.192,-2.253 -20.391,-4.53 -30.596,-6.786 0,-7.93 0,-16.983 -5.644,-18.115 -10.19,-2.279 -15.869,-10.192 -5.682,-16.991 11.326,-5.666 15.869,15.847 28.315,12.469 1.138,-1.14 2.27,-1.14 4.525,-1.14 M 0,15.846 c 133.596,0 243.42,-108.685 243.42,-243.422 0,-133.602 -109.824,-242.302 -243.42,-242.302 -133.604,0 -242.297,108.7 -242.297,242.302 0,134.737 108.693,243.422 242.297,243.422"
             style="fill:#ffffff;fill-opacity:1;fill-rule:evenodd;stroke:none"
             id="path3135" /></g><g
           id="g3137"
           transform="translate(611.85941,629.4834)"><path
             d="m 0,0 c -10.185,0 -20.374,0 -30.561,-1.137 -3.415,-10.194 -5.667,-19.247 -9.082,-29.434 5.667,3.388 10.214,12.456 10.214,19.24 0,9.07 13.588,2.271 21.516,-4.525 6.781,-7.911 12.451,0 21.496,5.662 4.527,2.278 9.055,3.395 13.592,2.278 0,2.249 -1.135,4.525 -2.269,6.779 C 16.976,0 9.056,0 0,0 m -19.247,-70.204 c -1.114,-6.801 0,-12.465 10.189,-12.465 11.327,1.145 15.854,-3.386 23.786,-9.053 6.775,-4.52 11.303,6.804 6.775,12.464 -4.518,4.527 -3.383,10.189 -5.632,24.91 -2.279,14.717 -10.214,9.056 -13.602,-3.39 -2.254,-11.331 -21.516,-12.466 -21.516,-12.466 m 124.549,23.778 c 9.051,-11.324 16.99,-23.778 24.901,-36.233 11.329,3.395 22.648,7.933 33.977,13.599 -19.255,19.238 -43.023,36.233 -69.077,48.671 2.273,-5.639 5.675,-10.194 10.199,-14.716 4.522,-5.662 4.522,-10.183 0,-11.321 M 30.578,-1.137 c 2.263,-6.793 4.527,-12.46 6.796,-18.112 4.513,-9.065 11.328,-4.518 21.514,-6.801 10.189,-2.264 6.797,-7.919 12.447,-18.111 4.518,-9.06 12.459,-24.915 6.787,-24.915 -6.787,0 -28.299,19.249 -28.299,19.249 0,0 -2.26,-1.117 -3.404,-3.394 1.144,-4.529 3.404,-9.054 3.404,-13.572 6.785,-6.804 19.254,-20.379 29.433,-29.461 15.856,3.415 30.568,6.801 46.425,12.468 -7.936,12.46 -16.987,24.921 -26.035,36.232 -6.802,0 -11.325,4.528 -10.19,9.07 0,1.12 0,2.252 -1.135,3.391 -1.144,1.124 -1.144,1.124 -2.274,2.246 -3.398,2.288 -7.925,5.677 -13.587,10.187 -4.518,3.411 -9.045,10.195 -11.318,14.73 l -1.14,0 c -10.179,3.395 -19.245,4.539 -29.424,6.793 m 36.23,-225.312 c 0,29.44 -3.393,61.145 -7.92,91.711 -2.28,-3.396 -3.404,-7.923 -2.28,-12.465 2.28,-18.101 -6.785,-21.514 -13.578,-28.295 -5.656,-6.797 -22.646,-19.26 -12.452,-31.705 11.309,-13.572 -7.921,-13.572 -12.468,-6.801 -4.527,6.801 -9.036,11.336 -19.242,10.193 -10.191,-1.123 -48.674,-3.392 -43.029,-19.241 2.274,-4.53 2.274,-7.936 3.411,-10.192 14.714,-1.132 28.312,-1.132 41.887,-1.132 4.534,2.265 7.937,2.265 12.446,2.265 l 18.129,0 c 9.045,0 18.111,1.123 27.176,2.261 l 0,1.137 c 1.114,1.131 4.527,2.264 7.92,2.264 m -74.724,-12.448 c -10.191,0 -20.398,0 -30.577,1.121 0,-3.393 1.143,-5.645 1.143,-10.167 1.115,-11.329 19.243,-12.465 21.498,-2.279 1.132,4.523 3.414,7.934 7.936,11.325 m 73.59,-41.896 c 1.124,10.185 1.124,20.389 1.124,29.449 -3.402,1.107 -6.785,1.107 -12.448,3.378 -15.862,3.397 -32.847,11.329 -40.758,3.397 -9.065,-9.046 -13.577,-20.372 -2.268,-20.372 10.179,0 11.319,1.132 10.179,-11.314 -1.134,-11.344 9.06,-19.269 16.985,-19.269 5.672,0 12.468,13.602 27.186,14.731 M -37.362,-432.514 c 2.266,-6.797 5.665,-13.588 7.921,-20.368 2.268,0 5.679,0 7.935,-1.136 -2.256,7.916 -6.804,18.111 -13.59,19.246 -1.132,1.124 -2.266,1.124 -2.266,2.258 m -86.042,360.047 c -4.535,-6.797 -9.056,-14.71 -13.608,-22.65 9.073,-1.137 16.993,-3.386 26.048,-4.52 0,3.383 0,27.17 -10.189,27.17 l -2.251,0 z m -53.232,-11.319 c 18.128,-5.66 31.708,-9.053 35.121,-10.185 3.389,7.916 7.911,14.713 12.444,21.511 -4.533,2.256 -6.787,5.645 -6.787,9.058 0,4.525 -2.268,9.054 -5.657,13.575 -12.468,-10.187 -24.927,-21.496 -35.121,-33.959 m -48.672,-115.486 c 15.854,-4.525 31.709,-10.195 48.672,-13.595 2.278,40.771 13.598,79.263 31.708,114.346 -11.308,3.414 -23.774,5.682 -35.095,10.212 -23.773,-31.703 -40.757,-70.203 -45.285,-110.963 m 114.344,93.973 c -9.045,2.258 -18.105,3.396 -28.292,5.662 -19.247,-35.101 -29.431,-73.597 -32.837,-114.352 24.899,-5.662 50.94,-11.327 76.983,-14.717 -9.057,9.055 -19.244,18.107 -18.1,35.101 1.121,32.824 -19.262,32.824 -9.061,55.468 7.917,15.85 11.307,27.178 11.307,32.838 m 39.641,-155.109 c 0,-29.44 3.388,-58.888 9.052,-88.313 30.561,-2.273 60.02,-2.273 90.581,0 -3.383,3.395 -3.383,6.797 4.522,13.578 14.722,15.847 14.722,18.101 0,21.519 -15.847,4.521 -29.427,39.613 -52.079,39.613 -19.246,0 -40.757,4.537 -52.076,13.603 m -16.983,26.032 c -28.314,3.388 -56.609,9.056 -84.923,14.718 -2.264,-38.488 5.671,-80.384 22.647,-115.47 27.178,-5.686 55.472,-10.198 83.778,-12.468 -6.793,30.574 -9.045,62.271 -10.181,93.981 l -1.137,0 c 0,7.916 -4.529,13.578 -10.184,19.239 m -118.892,-86.039 c 15.853,-4.528 32.84,-9.066 49.827,-12.459 -16.987,33.976 -22.643,77.002 -20.399,114.353 -15.829,4.517 -32.817,9.066 -48.67,13.58 0,-6.78 -1.139,-14.717 -1.139,-22.635 0,-32.84 7.913,-64.535 20.381,-92.839 m 104.175,-89.451 c -21.516,21.513 -39.648,44.14 -52.091,70.206 -14.71,4.527 -31.698,7.916 -48.674,12.437 16.976,-35.094 44.141,-65.658 76.978,-88.305 6.801,5.662 15.846,10.179 23.787,5.662 m 67.927,-41.903 c -13.597,31.713 -24.908,63.412 -31.708,98.512 -27.172,2.263 -54.349,6.795 -81.511,12.463 14.711,-31.718 40.761,-60.027 69.071,-82.655 l 10.194,0 c 2.246,-1.134 6.779,-6.801 10.18,-14.717 6.789,-4.526 13.575,-9.069 20.377,-12.468 1.143,-1.135 2.28,-1.135 3.397,-1.135 m 55.465,-2.249 c 0,3.384 1.144,5.658 1.144,10.18 1.13,11.324 4.527,29.439 13.583,18.126 5.651,14.721 11.323,29.428 14.717,45.285 -7.926,5.661 -13.584,11.328 -13.584,19.258 0,3.395 -1.133,5.643 -3.397,7.892 -30.563,-2.249 -61.146,-2.249 -93.972,0 4.536,-23.762 11.33,-48.668 20.379,-72.435 1.133,2.253 2.268,4.527 3.411,6.786 3.388,5.666 12.444,-1.12 15.834,-9.055 2.269,-6.791 4.542,-16.991 6.796,-26.037 l 14.715,0 20.374,0 z m 33.981,70.193 c -4.527,-15.852 -10.199,-30.569 -15.862,-46.415 9.056,-11.339 5.663,0 16.996,6.797 11.324,7.915 22.638,22.641 9.055,32.821 -3.397,2.269 -6.806,4.543 -10.189,6.797 m 160.771,80.38 c -12.458,-6.795 -24.907,-12.458 -38.474,-16.966 2.25,-3.407 1.115,-7.935 -4.551,-14.732 -11.304,-12.442 -1.125,-21.517 -15.857,-36.229 -14.707,-14.712 -28.295,-18.125 -30.564,-45.29 40.758,27.165 72.461,66.804 89.446,113.217 m 9.056,117.775 c -16.987,-9.088 -33.971,-16.998 -52.073,-22.668 2.245,-37.361 0,-71.32 -12.462,-106.431 5.662,0 10.185,-1.125 12.462,-2.253 13.574,4.523 29.429,11.318 44.161,19.239 7.912,22.657 11.31,46.439 11.31,70.207 0,14.711 -1.121,28.304 -3.398,41.906 m -69.068,-129.088 c 11.324,35.095 14.712,67.927 11.324,104.159 -26.031,-9.052 -54.35,-15.85 -81.505,-20.376 3.384,-2.271 11.319,-9.047 0,-14.712 -5.672,-3.411 -9.065,-4.528 -12.468,-5.667 -1.135,-9.05 -1.135,-19.254 -1.135,-28.309 2.274,0 4.538,-1.14 6.787,-1.14 23.802,-4.522 26.055,-1.119 37.373,-7.915 10.196,-7.936 11.33,-24.902 36.232,-24.902 1.134,0 2.278,0 3.392,-1.138 m -82.639,87.182 c 31.697,3.388 64.54,11.323 93.963,22.635 -3.388,39.637 -18.11,82.666 -38.489,116.62 -14.721,-4.518 -28.298,-9.055 -43.016,-12.446 2.249,-2.266 5.642,-3.403 6.786,-3.403 9.064,0 13.593,-10.191 -1.144,-13.585 -7.921,-2.257 -19.235,-5.654 -27.155,-12.456 4.527,-31.699 7.92,-64.547 9.055,-97.365 m 96.227,153.979 c -12.458,-4.535 -23.757,-9.057 -35.091,-13.575 19.245,-32.84 35.091,-77.002 38.49,-116.633 12.457,5.662 31.706,12.468 50.946,22.64 -7.921,40.767 -27.16,78.144 -54.345,107.568 m -24.891,-19.242 c -4.553,-4.527 3.388,-9.055 7.9,-11.331 4.533,-3.388 10.2,1.137 11.339,6.804 0,4.527 -3.394,10.189 -7.936,10.189 -4.506,1.135 -11.303,-5.662 -11.303,-5.662 m -189.101,60.007 c 2.278,10.185 5.659,20.379 9.082,30.563 -10.192,-2.253 -20.391,-4.53 -30.595,-6.786 0,-7.93 0,-16.983 -5.644,-18.115 -10.19,-2.279 -15.869,-10.192 -5.682,-16.991 11.326,-5.666 15.868,15.847 28.314,12.469 1.139,-1.14 2.27,-1.14 4.525,-1.14 M 0,15.846 c 133.597,0 243.421,-108.685 243.421,-243.422 0,-133.602 -109.824,-242.302 -243.421,-242.302 -133.604,0 -242.296,108.7 -242.296,242.302 0,134.737 108.692,243.422 242.296,243.422"
             style="fill:#ffffff;fill-opacity:1;fill-rule:evenodd;stroke:none"
             id="path3139" /></g></g></g><text
       transform="scale(1,-1)"
       id="text3141"
       x="240.43239"
       y="-215.95514"><tspan
         style="font-size:15.31989956px;font-variant:normal;font-weight:normal;font-stretch:normal;writing-mode:lr-tb;fill:#231f20;fill-opacity:1;fill-rule:nonzero;stroke:none;font-family:Myriad Pro;-inkscape-font-specification:MyriadPro-Regular"
         x="240.43239 248.19957 255.87485 264.51526 269.37167 277.78229 281.03012 291.04935 298.43353 302.04901 309.35663 316.74081 325.24335 328.49118 336.79456 345.20517 353.70773 362.34814"
         y="-215.95514"
         sodipodi:role="line"
         id="tspan3143">Pedro Galván Kondo</tspan><tspan
         style="font-size:15.31989956px;font-variant:normal;font-weight:normal;font-stretch:normal;writing-mode:lr-tb;fill:#231f20;fill-opacity:1;fill-rule:nonzero;stroke:none;font-family:Myriad Pro;-inkscape-font-specification:MyriadPro-Regular"
         x="232.0524 242.25545 245.8403 250.69672 258.37198 265.43445 270.41342 278.82407 283.83365 287.08148 294.7261 303.13672 307.77866 312.98743 324.2016 331.58578 336.4422 344.11746 347.3653 357.26193 365.70322 370.7128"
         y="-197.57126"
         sodipodi:role="line"
         id="tspan3145">Director Software Guru</tspan></text>
<g
       id="g3147"
       transform="translate(230.5798,236.8229)"><path
         d="M 0,0 147.241,0"
         style="fill:none;stroke:#231f20;stroke-width:1;stroke-linecap:butt;stroke-linejoin:miter;stroke-miterlimit:4;stroke-opacity:1;stroke-dasharray:none"
         id="path3149"
         inkscape:connector-curvature="0" /></g><g
       id="g3151"
       transform="translate(-4.8,-41.6)"><g
         id="g3153"
         clip-path="url(#clipPath3155)"><g
           id="g3159"
           transform="translate(355.16209,293.8584)"><path
             d="m 0,0 c -13.904,4.48 -38.622,-3.244 -41.248,-3.861 -2.626,-0.618 -26.419,-12.824 -26.419,-12.824 l -0.771,0.619 5.252,4.326 c -1.699,5.097 33.988,15.603 31.207,14.676 -2.781,-0.927 -33.37,-12.668 -35.688,-13.595 -2.317,-0.927 -0.771,0.772 0,1.389 0.774,0.619 -4.016,-0.771 -5.561,-1.235 -1.544,-0.463 -2.625,-1.081 -1.854,0 0.773,1.082 6.026,2.936 2.318,2.317 -3.708,-0.617 -12.05,-4.633 -12.05,-4.633 0,0 -2.781,-1.237 -1.545,0.308 1.236,1.544 27.344,12.204 27.344,12.204 0,0 -12.668,-4.633 -19.002,-4.325 -6.9,0.336 7.106,8.652 7.261,6.179 0.154,-2.471 -17.766,-9.114 -21.937,-10.351 -4.171,-1.236 -4.789,0.156 -4.789,0.156"
             style="fill:none;stroke:#231f20;stroke-width:2;stroke-linecap:butt;stroke-linejoin:miter;stroke-miterlimit:4;stroke-opacity:1;stroke-dasharray:none"
             id="path3161"
             inkscape:connector-curvature="0" /></g><g
           id="g3163"
           transform="translate(286.72411,277.79201)"><path
             d="m 0,0 c 0,0 20.083,12.205 28.735,12.514 0,0 -14.909,-6.528 -10.738,-6.836 2.994,-0.222 5.331,1.158 6.257,2.317 0.409,0.511 1.142,0.376 1.622,0.463 1.7,0.31 9.964,1.97 8.729,-0.425 0,0 4.017,1.545 4.479,0.618 l 26.882,7.878 2.626,0.928 c 0,0 1.391,0 1.237,-0.928 l 6.024,1.855 -0.618,-1.081 -12.359,-4.325 c 0,0 8.805,0.926 7.724,-0.31 -1.081,-1.235 -14.831,-5.562 -14.831,-5.562 0,0 19.62,4.018 20.393,4.327 0,0 -4.171,-2.009 -8.188,-3.09 C 63.958,7.261 50.827,4.635 50.827,4.635 c 0,0 -4.018,-0.463 -2.009,1.39 2.009,1.854 16.84,5.716 16.84,5.716 0,0 -2.628,0.773 -17.768,-3.708 0,0 -18.691,-11.123 -18.847,-9.578 C 28.889,0 44.03,7.879 45.265,8.497 c 0,0 -4.326,-0.463 -5.408,-1.081 C 38.776,6.797 35.841,6.18 35.069,6.18 34.296,6.18 9.887,-1.854 9.887,-1.854 c 0,0 -1.237,0.464 0.463,1.391 1.7,0.927 20.084,6.333 20.084,6.333 L 29.816,6.952 25.799,5.407 c 0,0 -1.275,0.386 -1.429,2.24 C 24.215,9.501 17.302,3.862 19.156,8.96 L 0.771,-0.618 c 0,0 -0.617,-1.08 -0.771,0.618"
             style="fill:#231f20;fill-opacity:1;fill-rule:nonzero;stroke:none"
             id="path3165"
             inkscape:connector-curvature="0" /></g><g
           id="g3167"
           transform="translate(327.2002,293.2021)"><path
             d="m 0,0 c 0,0 -2.55,-1.043 -2.434,-1.622 0.116,-0.579 0.463,-0.927 0.811,-0.579 0.348,0.347 8.922,4.518 8.922,4.518 0,0 2.201,1.275 1.39,1.275 C 7.879,3.592 0,0 0,0"
             style="fill:#231f20;fill-opacity:1;fill-rule:nonzero;stroke:none"
             id="path3169"
             inkscape:connector-curvature="0" /></g><g
           id="g3171"
           transform="translate(314.6855,290.46001)"><path
             d="M 0,0 C 0,0 3.708,2.511 3.939,2.974 4.172,3.438 5.446,4.365 5.678,3.901 5.909,3.438 6.257,3.322 5.446,2.163 4.636,1.004 3.708,0.541 3.708,0.541 L 0,0 z"
             style="fill:#231f20;fill-opacity:1;fill-rule:nonzero;stroke:none"
             id="path3173"
             inkscape:connector-curvature="0" /></g><g
           id="g3175"
           transform="translate(306.4976,286.2119)"><path
             d="m 0,0 c 0,0 -1.3,-2.347 0.155,-1.699 5.6,2.491 6.063,1.564 6.063,1.564 0,0 -9.231,-4.654 -8.69,-1.564 0.541,3.089 1.468,2.239 1.468,2.239 L 0,0 z"
             style="fill:#231f20;fill-opacity:1;fill-rule:nonzero;stroke:none"
             id="path3177"
             inkscape:connector-curvature="0" /></g></g></g><text
       transform="scale(1,-1)"
       id="text3179"
       style="font-size:16px;font-style:normal;font-variant:normal;font-weight:normal;font-stretch:normal;text-align:center;line-height:125%;writing-mode:lr-tb;text-anchor:middle;font-family:Arimo;-inkscape-font-specification:Arimo"
       sodipodi:linespacing="125%"
       x="305.05991"
       y="-510.32336"><tspan
         style="font-size:16px;font-style:normal;font-variant:normal;font-weight:normal;font-stretch:normal;text-align:center;line-height:125%;writing-mode:lr-tb;text-anchor:middle;fill:#4f4f4f;fill-opacity:1;fill-rule:nonzero;stroke:none;font-family:Arimo;-inkscape-font-specification:Arimo"
         x="305.05991"
         y="-510.32336"
         sodipodi:role="line"
         id="tspan3181">Software Guru</tspan></text>
<text
       transform="scale(1,-1)"
       id="text3183"
       style="font-size:12.80000019px;font-style:normal;font-variant:normal;font-weight:normal;font-stretch:normal;text-align:start;line-height:125%;writing-mode:lr-tb;text-anchor:start;font-family:Arimo;-inkscape-font-specification:Arimo"
       sodipodi:linespacing="125%"
       x="201.03444"
       y="-481.52289"><tspan
         style="font-size:12.80000019px;font-style:normal;font-variant:normal;font-weight:normal;font-stretch:normal;text-align:start;line-height:125%;writing-mode:lr-tb;text-anchor:start;fill:#4f4f4f;fill-opacity:1;fill-rule:nonzero;stroke:none;font-family:Arimo;-inkscape-font-specification:Arimo"
         sodipodi:role="line"
         id="tspan3185"
         x="201.03444"
         y="-481.52289">otorga el presente reconocimiento a:</tspan></text>
<text
       transform="scale(1,-1)"
       id="text3187"
       x="305.04053"
       y="-342.72284"
       style="font-size:12.80000019px;font-style:normal;font-variant:normal;font-weight:normal;font-stretch:normal;text-align:center;line-height:125%;writing-mode:lr-tb;text-anchor:middle;font-family:Arimo;-inkscape-font-specification:Arimo"
       sodipodi:linespacing="125%"><tspan
         style="font-size:12.80000019px;font-style:normal;font-variant:normal;font-weight:normal;font-stretch:normal;text-align:center;line-height:125%;writing-mode:lr-tb;text-anchor:middle;fill:#4f4f4f;fill-opacity:1;fill-rule:nonzero;stroke:none;font-family:Arimo;-inkscape-font-specification:Arimo"
         x="305.04053"
         y="-342.72284"
         sodipodi:role="line"
         id="tspan3189">Por su participación en el congreso</tspan></text>
<text
       transform="scale(1,-1)"
       id="text3191"
       sodipodi:linespacing="125%"
       style="font-size:17.60000038px;font-style:normal;font-variant:normal;font-weight:bold;font-stretch:normal;text-align:center;line-height:125%;writing-mode:lr-tb;text-anchor:middle;font-family:Arimo;-inkscape-font-specification:Arimo Bold"
       x="305.86877"
       y="-315.52484"><tspan
         style="font-size:17.60000038px;font-style:normal;font-variant:normal;font-weight:bold;font-stretch:normal;text-align:center;line-height:125%;writing-mode:lr-tb;text-anchor:middle;fill:#4f4f4f;fill-opacity:1;fill-rule:nonzero;stroke:none;font-family:Arimo;-inkscape-font-specification:Arimo Bold"
         x="305.86877"
         y="-315.52484"
         sodipodi:role="line"
         id="tspan3193">SG Virtual Conference 2013</tspan></text>
<text
       transform="scale(1.0122782,-0.98787073)"
       id="text3195"
       style="font-size:12.80000019px;font-style:normal;font-variant:normal;font-weight:normal;font-stretch:normal;text-align:center;line-height:125%;writing-mode:lr-tb;text-anchor:middle;font-family:Arimo;-inkscape-font-specification:Arimo"
       sodipodi:linespacing="125%"
       x="301.57416"
       y="-295.10199"><tspan
         style="font-size:12.80000019px;font-style:normal;font-variant:normal;font-weight:normal;font-stretch:normal;text-align:center;line-height:125%;writing-mode:lr-tb;text-anchor:middle;fill:#4f4f4f;fill-opacity:1;fill-rule:nonzero;stroke:none;font-family:Arimo;-inkscape-font-specification:Arimo"
         x="301.57416"
         sodipodi:role="line"
         id="tspan3197"
         y="-295.10199">27 y 28 de febrero de 2013</tspan></text>
<g
       id="g7217"
       transform="scale(1,1.5653127)"><g
         id="g7219"
         clip-path="url(#clipPath7221)"><path
           d="m 612,48.987 -612,0 0,-48.957 612,0 0,48.957 z"
           style="fill:#8bc53f;fill-opacity:1;fill-rule:nonzero;stroke:none"
           id="path7225"
           inkscape:connector-curvature="0" /></g></g><g
       transform="matrix(0.46079523,0,0,0.46079523,29.88499,10.889443)"
       id="g7551"
       style="fill:#ffffff"><path
         inkscape:connector-curvature="0"
         d="m 199.89998,105.65299 c 0,0 0,1.61446 0,1.61446 0,0 1.38203,0 1.38203,0 0.62266,0 1.44297,0 1.44297,-0.65117 0,-0.80821 -0.40234,-0.96329 -1.11718,-0.96329 0,0 -1.70782,0 -1.70782,0 0,0 0,0 0,0 z m 2.42266,-0.96171 c 1.13125,0.0778 1.73829,0.5582 1.73829,1.73828 0,1.69219 -1.01016,1.95469 -2.48516,1.95469 0,0 -3.10313,0 -3.10313,0 0,0 0,-6.39297 0,-6.39297 0,0 1.42734,0 1.42734,0 0,0 0,2.7 0,2.7 0,0 0.99454,0 0.99454,0 0,0 1.42812,-2.7 1.42812,-2.7 0,0 1.55,0 1.55,0 0,0 -1.55,2.7 -1.55,2.7 0,0 0,0 0,0 z m -1.39843,-4.26836 c -2.68438,0 -4.68595,1.95507 -4.68595,4.68789 0,2.76094 2.00157,4.71758 4.68595,4.71758 2.63749,0 4.68593,-1.95664 4.68593,-4.71758 0,-2.73282 -2.04844,-4.68789 -4.68593,-4.68789 0,0 0,0 0,0 z m 0,-1.458981 c 3.41405,0 6.14687,2.747651 6.14687,6.146871 0,3.4289 -2.73282,6.17656 -6.14687,6.17656 -3.42813,0 -6.1461,-2.74766 -6.1461,-6.17656 0,-3.39922 2.71797,-6.146871 6.1461,-6.146871 0,0 0,0 0,0 z"
         style="fill:#ffffff;fill-opacity:1;fill-rule:evenodd;stroke:none"
         id="path16" /><path
         inkscape:connector-curvature="0"
         d="m 164.66483,52.304171 c 0,0 -18.30469,0 -18.30469,0 0,0 0,15.976952 0,15.976952 0,0 44.73515,0 44.73515,0 0,0 0,-44.735544 0,-44.735544 0,0 -15.97577,0 -15.97577,0 0,0 0,9.421088 0,9.421088 -7.52188,-5.902336 -17.00626,-9.421088 -27.30782,-9.421088 -24.45156,0 -44.27577,19.820312 -44.27577,44.272264 0,24.452736 19.82421,44.275387 44.27577,44.275387 19.59531,0 36.21407,-12.729291 42.0461,-30.368747 0,0 -23.84297,0 -23.84297,0 -4.18438,5.471488 -10.78438,9 -18.20313,9 -12.65,0 -22.90781,-10.254688 -22.90781,-22.90664 0,-12.649608 10.25781,-22.905856 22.90781,-22.905856 6.66328,0 12.66485,2.848432 16.85313,7.392184 0,0 0,0 0,0 z"
         style="fill:#ffffff;fill-opacity:1;fill-rule:nonzero;stroke:none"
         id="path18" /><path
         inkscape:connector-curvature="0"
         d="m 47.050375,53.111987 c 0.475392,-3.303128 0.68516,-5.337504 2.323048,-7.27188 2.775392,-3.062496 7.625392,-3.782808 13.515232,-3.782808 8.894928,0 14.207032,2.456248 14.207032,8.168744 0,3.163288 -1.848824,5.916408 -4.848824,7.141408 -2.426568,1.019536 -5.312112,1.735936 -17.326952,4.184376 -10.624224,2.03828 -14.32188,3.264064 -18.597272,5.916016 -7.27656,4.48672 -11.202728,11.321488 -11.202728,19.587496 0,15.708991 14.32148,25.603911 37.07656,25.603911 14.670312,0 25.873824,-3.97813 32.112112,-11.63047 2.473432,-2.883593 5.252344,-8.689065 5.735147,-14.025393 0,0 0.009,-0.649216 0.009,-0.649216 0,0 -24.484379,0 -24.484379,0 0,0 0,0.21172 0,0.21172 -1.412888,6.541792 -5.573824,9.260936 -14.293744,9.260936 -7.046488,0 -12.244144,-3.366408 -12.244144,-8.059376 0,-2.856248 1.7332,-5 5.42656,-6.527344 2.312112,-0.920312 2.312112,-0.920312 15.941408,-3.366792 8.780864,-1.633208 14.32188,-3.3668 18.712896,-5.81524 8.311712,-4.590232 12.472653,-11.42656 12.472653,-20.812496 0,-7.65 -2.771093,-14.179688 -8.082813,-18.770312 -6.70156,-5.71172 -16.864064,-8.671096 -30.382032,-8.671096 -9.817576,0 -19.520704,1.837496 -25.75508,4.997656 -5.775,2.856248 -10.050392,7.244528 -12.474216,13.06016 -1.096096,2.315624 -1.789456,5.87656 -1.927344,11.25 0,0 24.08828,0 24.08828,0 0,0 0,0 0,0 z"
         style="fill:#ffffff;fill-opacity:1;fill-rule:nonzero;stroke:none"
         id="path20" /><path
         inkscape:connector-curvature="0"
         d="m 32.452409,17.985685 c -1.257551,0.717044 -3.014978,1.166946 -4.441228,1.166946 -2.83844,0 -4.898937,-1.882407 -4.898937,-4.764597 0,-2.746284 1.527797,-3.347706 3.841358,-4.008506 0.790453,-0.226511 2.237003,-0.5811223 2.237003,-1.6199529 0,-0.9966637 -0.916985,-1.432505 -1.780862,-1.432505 -1.265341,0 -2.358864,0.6607845 -3.2774,1.4684333 0,0 -1.582473,-2.9712272 -1.582473,-2.9712272 1.451237,-1.0169792 3.197738,-1.6199684 4.987974,-1.6199684 1.432505,0 2.921237,0.3936586 4.030373,1.3340785 1.129451,0.9623031 1.471552,2.4135402 1.471552,3.8272973 0,2.2916944 -1.52778,3.2914774 -3.507046,3.8757184 0,0 -0.941988,0.282755 -0.941988,0.282755 -0.642037,0.207779 -1.637133,0.528013 -1.637133,1.354394 0,0.790453 0.901357,1.188814 1.580905,1.188814 0.902924,0 1.773055,-0.376494 2.44635,-0.943555 0,0 1.471552,2.861875 1.471552,2.861875 0,0 0,0 0,0 z"
         style="fill:#ffffff;fill-opacity:1;fill-rule:nonzero;stroke:none"
         id="path22" /><path
         inkscape:connector-curvature="0"
         d="m 41.919106,15.669004 c 2.208897,0 4.013177,-1.787101 4.013177,-3.747619 0,-2.4447815 -1.80428,-4.2334652 -4.013177,-4.2334652 -2.199522,0 -4.005386,1.7886837 -4.005386,4.2334652 0,1.960518 1.805864,3.747619 4.005386,3.747619 0,0 0,0 0,0 z m 0,3.578919 c -4.081929,0 -7.851432,-3.011859 -7.851432,-7.304671 0,-4.5958823 3.300852,-7.8342354 7.851432,-7.8342354 4.559939,0 7.854535,3.2383531 7.854535,7.8342354 0,4.292812 -3.760112,7.304671 -7.854535,7.304671 0,0 0,0 0,0 z"
         style="fill:#ffffff;fill-opacity:1;fill-rule:evenodd;stroke:none"
         id="path24" /><path
         inkscape:connector-curvature="0"
         d="m 59.64182,15.650256 c 0,0 0,3.125897 0,3.125897 0,0 -8.151367,0 -8.151367,0 0,0 0,-14.1953668 0,-14.1953668 0,0 3.688272,0 3.688272,0 0,0 0,5.5722308 0,5.5722308 0,0 4.044433,0 4.044433,0 0,0 0,3.125881 0,3.125881 0,0 -4.044433,0 -4.044433,0 0,0 0,2.371358 0,2.371358 0,0 4.463095,0 4.463095,0 0,0 0,0 0,0 z"
         style="fill:#ffffff;fill-opacity:1;fill-rule:nonzero;stroke:none"
         id="path26" /><path
         inkscape:connector-curvature="0"
         d="m 67.344836,15.650256 c 0,0 3.046202,0 3.046202,0 0,0 0,3.125897 0,3.125897 0,0 -9.79005,0 -9.79005,0 0,0 0,-3.125897 0,-3.125897 0,0 3.046202,0 3.046202,0 0,0 0,-11.0694698 0,-11.0694698 0,0 3.697646,0 3.697646,0 0,0 0,11.0694698 0,11.0694698 0,0 0,0 0,0 z"
         style="fill:#ffffff;fill-opacity:1;fill-rule:nonzero;stroke:none"
         id="path28" /><path
         inkscape:connector-curvature="0"
         d="m 74.07931,18.776153 c 0,0 -3.836671,0 -3.836671,0 0,0 4.233449,-14.1953668 4.233449,-14.1953668 0,0 3.744515,0 3.744515,0 0,0 2.786883,8.2294618 2.786883,8.2294618 0,0 0.03903,0 0.03903,0 0,0 2.485396,-8.2294618 2.485396,-8.2294618 0,0 3.769487,0 3.769487,0 0,0 4.534951,14.1953668 4.534951,14.1953668 0,0 -3.841343,0 -3.841343,0 0,0 -2.672859,-9.16833 -2.672859,-9.16833 0,0 -0.04223,0 -0.04223,0 0,0 -2.783764,9.16833 -2.783764,9.16833 0,0 -2.938433,0 -2.938433,0 0,0 -2.975915,-9.16833 -2.975915,-9.16833 0,0 -0.03279,0 -0.03279,0 0,0 -2.469768,9.16833 -2.469768,9.16833 0,0 0,0 0,0 z"
         style="fill:#ffffff;fill-opacity:1;fill-rule:nonzero;stroke:none"
         id="path30" /><path
         inkscape:connector-curvature="0"
         d="m 98.950472,9.8718298 c 0,0 -3.061831,0 -3.061831,0 0,0 1.518422,4.5162042 1.518422,4.5162042 0,0 0.04223,0 0.04223,0 0,0 1.501242,-4.5162042 1.501242,-4.5162042 0,0 0,0 0,0 z m 0.998215,-2.8259467 c 0,0 0.926363,-2.4650969 0.926363,-2.4650969 0,0 3.93352,0 3.93352,0 0,0 -5.342578,14.1953668 -5.342578,14.1953668 0,0 -4.038195,0 -4.038195,0 0,0 -5.453505,-14.1953668 -5.453505,-14.1953668 0,0 3.910096,0 3.910096,0 0,0 0.984154,2.4650969 0.984154,2.4650969 0,0 5.080145,0 5.080145,0 0,0 0,0 0,0 z"
         style="fill:#ffffff;fill-opacity:1;fill-rule:evenodd;stroke:none"
         id="path32" /><path
         inkscape:connector-curvature="0"
         d="m 109.64503,15.95019 c 0,0 0.35461,0 0.35461,0 1.20443,0 2.56663,-0.223375 2.56663,-1.768352 0,-1.543425 -1.3622,-1.769936 -2.56663,-1.769936 0,0 -0.35461,0 -0.35461,0 0,0 0,3.538288 0,3.538288 0,0 0,0 0,0 z m 3.64921,-5.551914 c 2.01831,0.356178 3.11025,2.049555 3.11025,4.010073 0,3.03059 -2.12922,4.367804 -4.93018,4.367804 0,0 -5.5191,0 -5.5191,0 0,0 0,-14.1953668 0,-14.1953668 0,0 3.68982,0 3.68982,0 0,0 0,5.4628778 0,5.4628778 0,0 0.0406,0 0.0406,0 0,0 3.48204,-5.4628778 3.48204,-5.4628778 0,0 4.58965,0 4.58965,0 0,0 -4.4631,5.8174898 -4.4631,5.8174898 0,0 0,0 0,0 z"
         style="fill:#ffffff;fill-opacity:1;fill-rule:evenodd;stroke:none"
         id="path34" /><path
         inkscape:connector-curvature="0"
         d="m 126.83036,15.650256 c 0,0 0,3.125897 0,3.125897 0,0 -8.07481,0 -8.07481,0 0,0 0,-14.1953668 0,-14.1953668 0,0 8.07481,0 8.07481,0 0,0 0,3.1258815 0,3.1258815 0,0 -4.38655,0 -4.38655,0 0,0 0,2.4463493 0,2.4463493 0,0 4.16316,0 4.16316,0 0,0 0,3.125881 0,3.125881 0,0 -4.16316,0 -4.16316,0 0,0 0,2.371358 0,2.371358 0,0 4.38655,0 4.38655,0 0,0 0,0 0,0 z"
         style="fill:#ffffff;fill-opacity:1;fill-rule:nonzero;stroke:none"
         id="path36" /><path
         inkscape:connector-curvature="0"
         d="m 142.40041,12.507194 c 0,0 0,-2.899371 0,-2.899371 0,0 3.01497,0 3.01497,0 -0.15933,-1.6387003 -1.37781,-2.4666486 -2.97747,-2.4666486 -2.4276,0 -3.75075,2.2401378 -3.75075,4.4443476 0,2.165146 1.26536,4.481843 3.68825,4.481843 1.49656,0 2.56351,-0.90294 3.07123,-2.262021 0,0 3.50548,1.468433 3.50548,1.468433 -1.2263,2.65568 -3.4805,3.974146 -6.40331,3.974146 -4.574,0 -7.70301,-3.030591 -7.70301,-7.642102 0,-4.4646466 3.11339,-7.4968044 7.57023,-7.4968044 2.37449,0 4.4631,0.8482478 5.85655,2.7868991 1.25911,1.7683681 1.40751,3.5429753 1.44969,5.6112783 0,0 -7.32186,0 -7.32186,0 0,0 0,0 0,0 z"
         style="fill:#ffffff;fill-opacity:1;fill-rule:nonzero;stroke:none"
         id="path38" /><path
         inkscape:connector-curvature="0"
         d="m 160.04347,18.776153 c 0,0 0,-7.474953 0,-7.474953 0,-1.8433444 -0.13598,-3.858539 -2.50883,-3.858539 -2.37607,0 -2.50259,2.0151946 -2.50259,3.858539 0,0 0,7.474953 0,7.474953 0,0 -3.69764,0 -3.69764,0 0,0 0,-7.981084 0,-7.981084 0,-1.8261633 0.0797,-3.633595 1.48874,-5.011408 1.18881,-1.1638113 3.05716,-1.5793532 4.71149,-1.5793532 1.65433,0 3.51953,0.4155419 4.70835,1.5793532 1.40907,1.377813 1.48874,3.1852447 1.48874,5.011408 0,0 0,7.981084 0,7.981084 0,0 -3.68826,0 -3.68826,0 0,0 0,0 0,0 z"
         style="fill:#ffffff;fill-opacity:1;fill-rule:nonzero;stroke:none"
         id="path40" /><path
         inkscape:connector-curvature="0"
         d="m 169.75541,15.95019 c 0,0 0.35617,0 0.35617,0 1.20443,0 2.55726,-0.223375 2.55726,-1.768352 0,-1.543425 -1.35283,-1.769936 -2.55726,-1.769936 0,0 -0.35617,0 -0.35617,0 0,0 0,3.538288 0,3.538288 0,0 0,0 0,0 z m 3.6492,-5.551914 c 2.01832,0.356178 3.11028,2.049555 3.11028,4.010073 0,3.03059 -2.12768,4.367804 -4.93956,4.367804 0,0 -5.51756,0 -5.51756,0 0,0 0,-14.1953668 0,-14.1953668 0,0 3.69764,0 3.69764,0 0,0 0,5.4628778 0,5.4628778 0,0 0.039,0 0.039,0 0,0 3.48361,-5.4628778 3.48361,-5.4628778 0,0 4.58963,0 4.58963,0 0,0 -4.4631,5.8174898 -4.4631,5.8174898 0,0 0,0 0,0 z"
         style="fill:#ffffff;fill-opacity:1;fill-rule:evenodd;stroke:none"
         id="path42" /><path
         inkscape:connector-curvature="0"
         d="m 187.48594,18.776153 c 0,0 0,-7.474953 0,-7.474953 0,-1.8433444 -0.12653,-3.858539 -2.50257,-3.858539 -2.37293,0 -2.49946,2.0151946 -2.49946,3.858539 0,0 0,7.474953 0,7.474953 0,0 -3.69765,0 -3.69765,0 0,0 0,-7.981084 0,-7.981084 0,-1.8261633 0.0797,-3.633595 1.48875,-5.011408 1.1888,-1.1638113 3.05403,-1.5793532 4.70836,-1.5793532 1.65744,0 3.52265,0.4155419 4.71147,1.5793532 1.40907,1.377813 1.48093,3.1852447 1.48093,5.011408 0,0 0,7.981084 0,7.981084 0,0 -3.68983,0 -3.68983,0 0,0 0,0 0,0 z"
         style="fill:#ffffff;fill-opacity:1;fill-rule:nonzero;stroke:none"
         id="path44" /></g><g
       id="g7685"
       transform="matrix(0.96685319,0,0,0.96685319,7.317685,-16.690217)"><g
         id="g7631"><g
           id="g6989"><g
             id="g6991"><g
               id="g6997"><g
                 id="g6999"><path
                   d="m 157.923,756.401 c 0,-8.284 3.938,-15.135 11.23,-19.632 l 0,0 c 4.285,-2.658 7.99,-3.885 18.638,-5.925 l 0,0 c 12.041,-2.459 14.93,-3.174 17.365,-4.194 l 0,0 c 3.009,-1.23 4.86,-3.99 4.86,-7.161 l 0,0 c 0,-5.721 -5.324,-8.186 -14.24,-8.186 l 0,0 c -5.905,0 -10.763,0.72 -13.543,3.794 l 0,0 c -1.641,1.937 -1.853,3.974 -2.331,7.288 l 0,0 -24.139,0 c 0.137,-5.39 0.832,-8.956 1.93,-11.277 l 0,0 c 2.429,-5.826 6.715,-10.23 12.505,-13.089 l 0,0 c 6.245,-3.17 15.971,-5.014 25.809,-5.014 l 0,0 c 13.553,0 23.733,2.97 30.449,8.695 l 0,0 c 5.325,4.603 8.102,11.146 8.102,18.811 l 0,0 c 0,9.405 -4.169,16.258 -12.502,20.859 l 0,0 c -4.4,2.453 -9.954,4.191 -18.753,5.831 l 0,0 c -13.66,2.45 -13.66,2.45 -15.979,3.37 l 0,0 c -3.696,1.533 -5.436,3.682 -5.436,6.544 l 0,0 c 0,4.706 5.21,8.078 12.272,8.078 l 0,0 c 8.739,0 12.908,-2.727 14.323,-9.282 l 0,0 0,-0.213 24.543,0 -0.012,0.65 c -0.482,5.346 -3.267,11.168 -5.746,14.057 l 0,0 c -6.251,7.668 -17.483,11.655 -32.185,11.655 l 0,0 c -22.803,0 -37.16,-9.915 -37.16,-25.659"
                   style="fill:url(#linearGradient7742);stroke:none"
                   id="path7009"
                   inkscape:connector-curvature="0" /></g></g></g></g><g
           id="g7011"><g
             id="g7013"><g
               id="g7019"><g
                 id="g7021"><path
                   d="m 236.092,737.531 c 0,-24.503 19.871,-44.366 44.377,-44.366 l 0,0 c 10.325,0 19.828,3.523 27.363,9.441 l 0,0 0,-9.441 16.011,0 0,44.83 -44.833,0 0,-16.012 18.345,0 c -4.196,-4.554 -10.211,-7.41 -16.886,-7.41 l 0,0 c -12.686,0 -22.961,10.279 -22.961,22.958 l 0,0 c 0,12.685 10.275,22.957 22.961,22.957 l 0,0 c 7.435,0 14.045,-3.539 18.24,-9.019 l 0,0 23.894,0 c -5.842,17.681 -22.498,30.436 -42.134,30.436 l 0,0 c -24.506,0 -44.377,-19.865 -44.377,-44.374"
                   style="fill:url(#linearGradient7744);stroke:none"
                   id="path7031"
                   inkscape:connector-curvature="0" /></g></g></g></g><g
           id="g7041"
           transform="translate(181.8804,686.4478)"><path
             d="m 0,0 5.783,0 -15.048,-37.54 -3.962,0 L -28.275,0 -22.384,0 -11.245,-28.008 0,0 z"
             style="fill:#8bc53f;fill-opacity:1;fill-rule:nonzero;stroke:none"
             id="path7043"
             inkscape:connector-curvature="0" /></g><g
           id="g7045"
           transform="translate(208.1245,681.0918)"><path
             d="m 0,0 -6.962,0 0,-26.668 6.962,0 0,-5.409 -19.332,0 0,5.409 6.961,0 0,26.668 -6.961,0 0,5.356 L 0,5.356 0,0 z"
             style="fill:#8bc53f;fill-opacity:1;fill-rule:nonzero;stroke:none"
             id="path7047"
             inkscape:connector-curvature="0" /></g><g
           id="g7049"
           transform="translate(217.123,668.02589)"><path
             d="m 0,0 6.32,0 c 4.553,0 6.801,3.267 6.801,6.533 0,3.213 -2.248,6.479 -6.801,6.479 l -8.301,0 0,-32.023 -5.355,0 0,37.486 13.656,0 c 8.139,0 12.21,-5.997 12.21,-11.942 0,-5.302 -3.268,-10.336 -9.694,-11.46 l 11.835,-14.084 -7.015,0 L 0,-2.571 0,0 z"
             style="fill:#8bc53f;fill-opacity:1;fill-rule:nonzero;stroke:none"
             id="path7051"
             inkscape:connector-curvature="0" /></g><g
           id="g7053"
           transform="translate(247.3833,648.854)"><path
             d="m 0,0 0,32.184 -11.352,0 0,5.463 28.06,0 0,-5.463 -11.3,0 L 5.408,0 0,0 z"
             style="fill:#8bc53f;fill-opacity:1;fill-rule:nonzero;stroke:none"
             id="path7055"
             inkscape:connector-curvature="0" /></g><g
           id="g7057"
           transform="translate(265.59419,660.2603)"><path
             d="m 0,0 0,26.188 5.463,0 0,-26.242 c 0,-4.123 4.443,-6.157 8.407,-6.157 3.909,0 8.355,2.087 8.355,6.211 l 0,26.188 5.463,0 0,-26.242 c 0,-7.603 -7.391,-11.567 -13.818,-11.567 C 7.283,-11.621 0,-7.657 0,0"
             style="fill:#8bc53f;fill-opacity:1;fill-rule:nonzero;stroke:none"
             id="path7059"
             inkscape:connector-curvature="0" /></g><g
           id="g7061"
           transform="translate(304.1011,665.1333)"><path
             d="M 0,0 9.32,0 4.713,13.228 0,0 z m 11.407,-5.087 -13.44,0 c -1.446,-3.427 -3.321,-7.926 -4.499,-11.032 l -5.837,0 15.048,37.968 3.961,0 15.049,-37.968 -5.784,0 -4.498,11.032 z"
             style="fill:#8bc53f;fill-opacity:1;fill-rule:nonzero;stroke:none"
             id="path7063"
             inkscape:connector-curvature="0" /></g><g
           id="g7069"
           transform="translate(161.31641,639.2476)"><path
             d="m 0,0 c 3.267,3.374 7.873,5.57 12.96,5.57 8.569,0 15.315,-5.356 17.457,-13.818 l -5.356,0 c -1.98,5.624 -6.585,8.462 -12.101,8.462 -3.588,0 -6.855,-1.553 -9.21,-4.016 -2.357,-2.464 -3.856,-5.783 -3.856,-9.64 0,-3.748 1.499,-7.069 3.856,-9.532 2.355,-2.464 5.622,-4.016 9.21,-4.016 5.676,0 10.496,3.266 12.424,8.943 l 5.301,0 c -2.143,-8.515 -8.997,-14.298 -17.725,-14.298 -5.087,0 -9.693,2.142 -12.96,5.57 -3.213,3.427 -5.356,8.139 -5.356,13.333 0,5.303 2.143,10.014 5.356,13.442"
             style="fill:#009345;fill-opacity:1;fill-rule:nonzero;stroke:none"
             id="path7071"
             inkscape:connector-curvature="0" /></g><g
           id="g7073"
           transform="translate(221.4053,635.6064)"><path
             d="m 0,0 c -2.516,2.516 -5.998,4.069 -9.692,4.069 -3.694,0 -7.121,-1.553 -9.586,-4.069 -2.462,-2.464 -4.016,-5.892 -4.016,-9.693 0,-3.802 1.554,-7.23 4.016,-9.694 2.465,-2.516 5.892,-4.07 9.586,-4.07 3.694,0 7.176,1.554 9.692,4.07 2.411,2.464 3.964,5.838 3.964,9.694 C 3.964,-5.838 2.411,-2.464 0,0 m -23.187,3.855 c 3.428,3.48 8.248,5.676 13.495,5.676 5.302,0 10.067,-2.196 13.548,-5.676 3.374,-3.48 5.569,-8.247 5.569,-13.548 0,-5.302 -2.195,-10.068 -5.569,-13.55 -3.481,-3.533 -8.246,-5.675 -13.548,-5.675 -5.247,0 -10.067,2.142 -13.495,5.675 -3.375,3.482 -5.568,8.248 -5.568,13.55 0,5.301 2.193,10.068 5.568,13.548"
             style="fill:#009345;fill-opacity:1;fill-rule:nonzero;stroke:none"
             id="path7075"
             inkscape:connector-curvature="0" /></g><g
           id="g7077"
           transform="translate(232.0674,607.16991)"><path
             d="m 0,0 0,37.54 4.177,-0.054 18.26,-26.401 0,26.401 5.356,0 L 27.793,0 23.509,0 5.41,26.187 5.41,0 0,0 z"
             style="fill:#009345;fill-opacity:1;fill-rule:nonzero;stroke:none"
             id="path7079"
             inkscape:connector-curvature="0" /></g><g
           id="g7081"
           transform="translate(267.6841,607.16991)"><path
             d="m 0,0 -5.408,0 0,37.433 22.33,0 0,-5.409 -16.922,0 0,-10.55 14.995,0 0,-5.462 L 0,16.012 0,0 z"
             style="fill:#009345;fill-opacity:1;fill-rule:nonzero;stroke:none"
             id="path7083"
             inkscape:connector-curvature="0" /></g><g
           id="g7085"
           transform="translate(291.78371,612.5786)"><path
             d="m 0,0 17.404,0 0,-5.409 -22.866,0 0,37.433 22.813,0 0,-5.409 -17.351,0 0,-10.55 16.977,0 0,-5.461 L 0,10.604 0,0 z"
             style="fill:#009345;fill-opacity:1;fill-rule:nonzero;stroke:none"
             id="path7087"
             inkscape:connector-curvature="0" /></g><g
           id="g7089"
           transform="translate(318.9902,626.18069)"><path
             d="m 0,0 6.32,0 c 4.552,0 6.801,3.267 6.801,6.533 0,3.213 -2.249,6.48 -6.801,6.48 l -8.301,0 0,-32.024 -5.356,0 0,37.486 13.657,0 c 8.139,0 12.209,-5.997 12.209,-11.942 0,-5.301 -3.266,-10.335 -9.692,-11.46 l 11.835,-14.084 -7.017,0 L 0,-2.57 0,0 z"
             style="fill:#009345;fill-opacity:1;fill-rule:nonzero;stroke:none"
             id="path7091"
             inkscape:connector-curvature="0" /></g><g
           id="g7093"
           transform="translate(345.6104,612.5786)"><path
             d="m 0,0 17.404,0 0,-5.409 -22.868,0 0,37.433 22.815,0 0,-5.409 -17.351,0 0,-10.55 16.976,0 0,-5.461 L 0,10.604 0,0 z"
             style="fill:#009345;fill-opacity:1;fill-rule:nonzero;stroke:none"
             id="path7095"
             inkscape:connector-curvature="0" /></g><g
           id="g7097"
           transform="translate(365.4268,607.16991)"><path
             d="m 0,0 0,37.54 4.178,-0.054 18.26,-26.401 0,26.401 5.355,0 L 27.793,0 23.509,0 5.408,26.187 5.408,0 0,0 z"
             style="fill:#009345;fill-opacity:1;fill-rule:nonzero;stroke:none"
             id="path7099"
             inkscape:connector-curvature="0" /></g><g
           id="g7101"
           transform="translate(400.50591,639.2476)"><path
             d="m 0,0 c 3.267,3.374 7.873,5.57 12.96,5.57 8.567,0 15.316,-5.356 17.458,-13.818 l -5.355,0 c -1.982,5.624 -6.587,8.462 -12.103,8.462 -3.589,0 -6.856,-1.553 -9.211,-4.016 -2.356,-2.464 -3.856,-5.783 -3.856,-9.64 0,-3.748 1.5,-7.069 3.856,-9.532 2.355,-2.464 5.622,-4.016 9.211,-4.016 5.677,0 10.495,3.266 12.423,8.943 l 5.303,0 c -2.143,-8.515 -8.997,-14.298 -17.726,-14.298 -5.087,0 -9.693,2.142 -12.96,5.57 -3.213,3.427 -5.354,8.139 -5.354,13.333 0,5.303 2.141,10.014 5.354,13.442"
             style="fill:#009345;fill-opacity:1;fill-rule:nonzero;stroke:none"
             id="path7103"
             inkscape:connector-curvature="0" /></g><g
           id="g7105"
           transform="translate(438.0518,612.5786)"><path
             d="m 0,0 17.404,0 0,-5.409 -22.867,0 0,37.433 22.813,0 0,-5.409 -17.35,0 0,-10.55 16.976,0 0,-5.461 L 0,10.604 0,0 z"
             style="fill:#009345;fill-opacity:1;fill-rule:nonzero;stroke:none"
             id="path7107"
             inkscape:connector-curvature="0" /></g><g
           id="g7109"
           transform="translate(392.4785,778.23)"><path
             d="m 0,0 c -2.36,0 -4.724,0 -7.087,-0.264 -0.791,-2.364 -1.314,-4.464 -2.105,-6.826 1.314,0.786 2.369,2.889 2.369,4.462 0,2.104 3.15,0.527 4.988,-1.049 1.573,-1.835 2.887,0 4.986,1.313 1.049,0.529 2.099,0.787 3.151,0.529 0,0.521 -0.261,1.048 -0.526,1.571 C 3.938,0 2.1,0 0,0 m -4.462,-16.28 c -0.26,-1.578 0,-2.891 2.361,-2.891 2.627,0.265 3.677,-0.786 5.517,-2.099 1.571,-1.049 2.62,1.577 1.571,2.889 -1.047,1.05 -0.785,2.364 -1.306,5.778 -0.528,3.412 -2.368,2.1 -3.155,-0.787 -0.521,-2.627 -4.988,-2.89 -4.988,-2.89 m 28.883,5.513 c 2.098,-2.626 3.939,-5.513 5.774,-8.402 2.627,0.788 5.251,1.84 7.88,3.154 -4.466,4.461 -9.978,8.402 -16.018,11.287 0.526,-1.308 1.314,-2.365 2.364,-3.413 1.049,-1.313 1.049,-2.361 0,-2.626 M 7.091,-0.264 c 0.526,-1.575 1.051,-2.889 1.576,-4.2 1.048,-2.102 2.628,-1.048 4.989,-1.577 2.363,-0.525 1.575,-1.837 2.887,-4.2 1.047,-2.101 2.89,-5.778 1.574,-5.778 -1.574,0 -6.563,4.464 -6.563,4.464 0,0 -0.523,-0.259 -0.789,-0.787 0.266,-1.051 0.789,-2.1 0.789,-3.147 1.576,-1.578 4.465,-4.727 6.827,-6.833 3.677,0.792 7.089,1.577 10.765,2.892 -1.839,2.889 -3.938,5.779 -6.037,8.402 -1.578,0 -2.628,1.05 -2.364,2.103 0,0.26 0,0.523 -0.264,0.787 -0.263,0.26 -0.263,0.26 -0.525,0.521 -0.789,0.531 -1.839,1.316 -3.152,2.362 -1.048,0.791 -2.097,2.364 -2.624,3.416 l -0.265,0 c -2.361,0.787 -4.463,1.052 -6.824,1.575 m 8.402,-52.251 c 0,6.828 -0.786,14.18 -1.837,21.269 -0.526,-0.788 -0.789,-1.837 -0.526,-2.891 0.526,-4.198 -1.576,-4.988 -3.15,-6.562 -1.313,-1.575 -5.251,-4.466 -2.889,-7.352 2.624,-3.148 -1.837,-3.148 -2.891,-1.577 -1.049,1.577 -2.096,2.628 -4.462,2.364 -2.364,-0.26 -11.288,-0.787 -9.978,-4.462 0.527,-1.05 0.527,-1.841 0.791,-2.363 3.412,-0.264 6.564,-0.264 9.713,-0.264 1.051,0.526 1.84,0.526 2.887,0.526 l 4.203,0 c 2.098,0 4.2,0.26 6.302,0.524 l 0,0.264 c 0.259,0.263 1.051,0.524 1.837,0.524 m -17.328,-2.886 c -2.364,0 -4.729,0 -7.091,0.26 0,-0.787 0.266,-1.309 0.266,-2.358 0.258,-2.626 4.461,-2.89 4.984,-0.528 0.263,1.049 0.791,1.839 1.841,2.626 m 17.065,-9.715 c 0.26,2.362 0.26,4.728 0.26,6.828 -0.789,0.258 -1.573,0.258 -2.886,0.784 -3.676,0.788 -7.617,2.628 -9.451,0.788 -2.102,-2.098 -3.148,-4.724 -0.526,-4.724 2.36,0 2.626,0.262 2.36,-2.624 -0.263,-2.631 2.102,-4.468 3.941,-4.468 1.314,0 2.888,3.154 6.302,3.416 m -23.893,-35.185 c 0.524,-1.575 1.313,-3.151 1.837,-4.724 0.525,0 1.315,0 1.839,-0.263 -0.524,1.836 -1.577,4.201 -3.152,4.463 -0.262,0.261 -0.524,0.261 -0.524,0.524 m -19.954,83.496 c -1.051,-1.576 -2.101,-3.412 -3.156,-5.253 2.105,-0.264 3.941,-0.785 6.042,-1.048 0,0.784 0,6.301 -2.363,6.301 l -0.523,0 z m -12.344,-2.625 c 4.204,-1.313 7.353,-2.1 8.144,-2.362 0.786,1.835 1.835,3.411 2.886,4.988 -1.051,0.524 -1.575,1.309 -1.575,2.101 0,1.049 -0.525,2.1 -1.311,3.148 -2.891,-2.362 -5.781,-4.985 -8.144,-7.875 m -11.288,-26.781 c 3.678,-1.05 7.353,-2.365 11.288,-3.154 0.527,9.456 3.152,18.382 7.353,26.518 -2.622,0.791 -5.515,1.317 -8.139,2.368 -5.513,-7.352 -9.451,-16.28 -10.502,-25.732 m 26.518,21.792 c -2.098,0.523 -4.2,0.787 -6.562,1.313 -4.464,-8.14 -6.824,-17.067 -7.615,-26.519 5.775,-1.313 11.814,-2.626 17.852,-3.412 -2.099,2.099 -4.463,4.199 -4.197,8.14 0.261,7.612 -4.468,7.612 -2.101,12.863 1.835,3.675 2.623,6.302 2.623,7.615 m 9.191,-35.97 c 0,-6.827 0.787,-13.656 2.1,-20.48 7.086,-0.527 13.919,-0.527 21.006,0 -0.785,0.787 -0.785,1.576 1.048,3.149 3.414,3.675 3.414,4.198 0,4.99 -3.674,1.049 -6.824,9.187 -12.076,9.187 -4.464,0 -9.453,1.052 -12.078,3.154 m -3.937,6.036 c -6.567,0.786 -13.128,2.101 -19.695,3.414 -0.523,-8.926 1.316,-18.642 5.251,-26.778 6.304,-1.319 12.865,-2.365 19.431,-2.89 -1.576,7.089 -2.099,14.439 -2.362,21.793 l -0.265,0 c 0,1.836 -1.049,3.148 -2.36,4.461 m -27.572,-19.952 c 3.677,-1.05 7.615,-2.102 11.556,-2.889 -3.941,7.878 -5.252,17.857 -4.732,26.519 -3.671,1.047 -7.61,2.102 -11.286,3.149 0,-1.572 -0.265,-3.413 -0.265,-5.25 0,-7.615 1.835,-14.964 4.727,-21.529 m 24.158,-20.744 c -4.989,4.989 -9.195,10.236 -12.079,16.281 -3.412,1.05 -7.352,1.835 -11.289,2.885 3.937,-8.139 10.237,-15.226 17.852,-20.479 1.578,1.313 3.676,2.361 5.516,1.313 m 15.752,-9.716 c -3.151,7.353 -5.776,14.704 -7.351,22.843 -6.302,0.526 -12.604,1.578 -18.904,2.891 3.412,-7.355 9.453,-13.92 16.018,-19.167 l 2.363,0 c 0.523,-0.264 1.573,-1.577 2.362,-3.413 1.574,-1.05 3.147,-2.104 4.725,-2.891 0.266,-0.263 0.529,-0.263 0.787,-0.263 m 12.863,-0.523 c 0,0.785 0.264,1.312 0.264,2.362 0.265,2.625 1.053,6.826 3.152,4.202 1.31,3.414 2.625,6.825 3.412,10.502 -1.837,1.313 -3.151,2.628 -3.151,4.467 0,0.787 -0.261,1.308 -0.787,1.83 -7.088,-0.522 -14.178,-0.522 -21.791,0 1.051,-5.512 2.627,-11.286 4.726,-16.799 0.263,0.523 0.525,1.05 0.791,1.575 0.785,1.313 2.885,-0.261 3.672,-2.101 0.526,-1.575 1.052,-3.939 1.575,-6.038 l 3.413,0 4.724,0 z m 7.88,16.278 c -1.05,-3.676 -2.366,-7.088 -3.676,-10.763 2.098,-2.629 1.31,0 3.939,1.576 2.626,1.836 5.25,5.25 2.1,7.612 -0.787,0.525 -1.578,1.052 -2.363,1.575 m 37.285,18.641 c -2.89,-1.577 -5.777,-2.889 -8.923,-3.935 0.521,-0.79 0.259,-1.84 -1.056,-3.416 -2.621,-2.886 -0.261,-4.989 -3.676,-8.402 -3.412,-3.412 -6.562,-4.203 -7.088,-10.503 9.452,6.3 16.803,15.492 20.743,26.256 m 2.099,27.312 c -3.94,-2.108 -7.878,-3.943 -12.077,-5.257 0.523,-8.664 0,-16.54 -2.889,-24.682 1.313,0 2.362,-0.26 2.889,-0.522 3.149,1.048 6.826,2.624 10.241,4.462 1.836,5.253 2.624,10.768 2.624,16.28 0,3.412 -0.26,6.565 -0.788,9.719 M 35.971,-72.994 c 2.627,8.139 3.412,15.753 2.627,24.156 -6.038,-2.1 -12.606,-3.677 -18.903,-4.726 0.784,-0.526 2.625,-2.098 0,-3.412 -1.314,-0.791 -2.102,-1.049 -2.891,-1.313 -0.262,-2.099 -0.262,-4.465 -0.262,-6.566 0.527,0 1.051,-0.264 1.573,-0.264 5.518,-1.049 6.043,-0.259 8.667,-1.836 2.364,-1.839 2.628,-5.774 8.403,-5.774 0.261,0 0.527,0 0.786,-0.265 m -19.165,20.218 c 7.352,0.786 14.968,2.626 21.792,5.25 -0.786,9.191 -4.202,19.17 -8.926,27.044 -3.414,-1.048 -6.563,-2.1 -9.977,-2.886 0.523,-0.526 1.308,-0.789 1.574,-0.789 2.102,0 3.152,-2.364 -0.266,-3.151 -1.836,-0.523 -4.46,-1.311 -6.296,-2.888 1.049,-7.351 1.836,-14.969 2.099,-22.58 m 22.316,35.709 c -2.888,-1.052 -5.51,-2.1 -8.138,-3.149 4.462,-7.615 8.138,-17.856 8.926,-27.047 2.89,1.313 7.354,2.892 11.815,5.251 -1.836,9.453 -6.298,18.121 -12.603,24.945 m -5.773,-4.463 c -1.055,-1.05 0.787,-2.1 1.832,-2.627 1.053,-0.786 2.366,0.263 2.631,1.577 0,1.05 -0.788,2.363 -1.841,2.363 -1.047,0.263 -2.622,-1.313 -2.622,-1.313 m -43.853,13.916 c 0.529,2.362 1.314,4.726 2.107,7.088 -2.363,-0.523 -4.729,-1.051 -7.095,-1.574 0,-1.839 0,-3.938 -1.31,-4.201 -2.362,-0.528 -3.679,-2.364 -1.317,-3.94 2.627,-1.314 3.681,3.675 6.566,2.891 0.264,-0.264 0.528,-0.264 1.049,-0.264 M 0,3.674 c 30.982,0 56.451,-25.204 56.451,-56.45 0,-30.981 -25.469,-56.189 -56.451,-56.189 -30.982,0 -56.188,25.208 -56.188,56.189 0,31.246 25.206,56.45 56.188,56.45"
             style="fill:#8bc53f;fill-opacity:1;fill-rule:evenodd;stroke:none"
             id="path7111"
             inkscape:connector-curvature="0" /></g><g
           id="g7113"
           transform="translate(436.83591,648.86819)"><path
             d="M 0,0 C -0.991,0 -2.015,0.036 -3.071,0.107 -3.763,0.152 -4.294,0.171 -4.8,0.124 -6.317,-0.02 -7.831,0.023 -9.297,0.064 c -0.762,0.022 -1.527,0.042 -2.267,0.037 -2.821,-0.034 -5.653,-0.018 -8.478,-0.003 l -2.129,0.012 c -1.974,0.007 -3.948,0.005 -5.925,0.002 -2.441,-0.005 -4.883,-0.008 -7.326,0.011 -2.481,0.017 -4.964,0.011 -7.444,0.006 -2.401,-0.004 -4.799,-0.009 -7.197,0.005 -2.665,0.015 -5.325,0.013 -7.987,0.006 -2.266,-0.005 -4.531,-0.01 -6.795,0 -2.7,0.013 -5.399,0.009 -8.099,0.005 -1.856,-0.002 -3.712,-0.006 -5.57,-0.001 -3.764,0.005 -7.533,0.005 -11.299,-0.001 -1.039,-0.004 -2.077,-0.003 -3.117,0.001 -1.522,0.001 -3.043,0.008 -4.565,-0.005 -0.373,-0.006 -0.749,0.001 -1.125,0.005 -0.547,0.005 -1.092,0.014 -11.112,-0.008 l -0.232,5.414 c 10.123,0.028 10.769,0.023 11.409,0.014 0.341,-0.005 0.68,-0.006 1.019,-0.006 1.537,0.012 3.076,0.01 4.616,0.006 1.03,-0.004 2.063,-0.003 3.093,-0.003 3.774,0.01 7.548,0.007 11.321,0.002 1.852,0 3.702,0.001 5.556,0.002 2.71,0.003 5.419,0.006 8.128,-0.005 2.255,-0.009 4.506,-0.004 6.76,0 2.676,0.005 5.355,0.011 8.034,-0.007 2.381,-0.014 4.764,-0.01 7.148,-0.004 2.498,0.005 4.998,0.012 7.499,-0.007 2.425,-0.02 4.849,-0.015 7.278,-0.01 1.985,0.004 3.969,0.007 5.956,-0.003 l 2.135,-0.011 c 2.795,-0.015 5.596,-0.033 8.386,0.002 0.818,0.003 1.647,-0.015 2.482,-0.039 1.361,-0.037 2.646,-0.074 3.834,0.039 0.959,0.09 1.845,0.044 2.599,-0.006 3.708,-0.246 6.88,-0.005 9.697,0.74 l 0.221,0.057 c 1.479,0.391 3.319,0.876 4.453,1.568 1.578,0.964 3.605,3.157 3.991,4.766 0.136,0.563 -10e-4,0.784 -0.059,0.878 -0.321,0.519 -3.058,0.486 -4.087,0.48 -1.233,-0.015 -2.396,-0.025 -3.445,0.177 -3.864,0.74 -6.243,3.761 -5.657,7.183 0.35,2.03 1.62,3.512 2.943,4.81 1.517,1.49 3.176,2.746 4.779,3.963 0.62,0.468 1.237,0.939 1.844,1.418 2.269,1.795 4.044,3.385 5.326,5.297 1.211,1.804 1.991,4.024 2.385,6.79 0.219,1.544 0.19,3.186 0.158,4.925 -0.011,0.666 -0.024,1.328 -0.022,1.988 0.005,1.955 -0.506,3.463 -1.522,4.481 -1.312,1.315 -3.106,1.511 -4.063,1.511 l 0,5.419 c 3.1,0 5.904,-1.102 7.9,-3.102 1.423,-1.427 3.117,-4.03 3.104,-8.323 0,-0.622 0.013,-1.248 0.022,-1.875 0.035,-1.877 0.071,-3.816 -0.21,-5.79 C 24.533,39.285 23.47,36.326 21.796,33.832 20.021,31.188 17.642,29.133 15.334,27.306 14.698,26.801 14.049,26.31 13.399,25.817 11.864,24.652 10.414,23.553 9.143,22.305 8.755,21.924 7.846,21.032 7.745,20.447 7.632,19.787 9.066,19.504 9.08,19.5 c 0.517,-0.098 1.455,-0.084 2.367,-0.078 2.88,0.039 6.833,0.073 8.76,-3.057 0.9,-1.461 1.147,-3.186 0.716,-4.987 C 20.055,7.77 16.597,4.542 14.482,3.254 12.677,2.149 10.409,1.552 8.588,1.071 L 8.373,1.015 C 5.811,0.335 3.05,0.001 0,0"
             style="fill:#8bc53f;fill-opacity:1;fill-rule:nonzero;stroke:none"
             id="path7115"
             inkscape:connector-curvature="0" /></g><g
           id="g7117"
           transform="translate(446.8037,716.6396)"><path
             d="m 0,0 -3.979,-12.638 9.127,-2.693 c 0,0 2.81,-0.231 4.798,5.736 1.99,5.967 -0.819,6.318 -0.819,6.318 L 0,0 z"
             style="fill:#8bc53f;fill-opacity:1;fill-rule:evenodd;stroke:none"
             id="path7119"
             inkscape:connector-curvature="0" /></g></g><g
         transform="translate(331.63181,654.42329)"
         id="g7065"><path
           inkscape:connector-curvature="0"
           id="path7067"
           style="fill:#8bc53f;fill-opacity:1;fill-rule:nonzero;stroke:none"
           d="m 0,0 17.618,0 0,-5.409 -23.026,0 0,37.433 5.408,0 L 0,0 z" /></g></g><text
       xml:space="preserve"
       style="font-size:20.0844059px;font-style:normal;font-variant:normal;font-weight:bold;font-stretch:normal;text-align:start;line-height:125%;letter-spacing:0px;word-spacing:0px;writing-mode:lr-tb;text-anchor:start;fill:#ffffff;fill-opacity:1;stroke:none;font-family:Arimo;-inkscape-font-specification:Arimo Bold"
       x="144.51517"
       y="-31.855686"
       id="text7748"
       sodipodi:linespacing="125%"
       transform="scale(1,-1)"><tspan
         sodipodi:role="line"
         id="tspan7750"
         x="144.51517"
         y="-31.855686">Conocimiento para crear software grandioso</tspan></text>
<path
       style="fill:none;stroke:#000000;stroke-width:0.92122585px;stroke-linecap:butt;stroke-linejoin:miter;stroke-opacity:1"
       d="m 165.48501,405.72903 c 279.91993,0 279.91993,0 279.91993,0"
       id="path7760"
       inkscape:connector-curvature="0" /></g></svg>